<?xml version="1.0" encoding="UTF-8" standalone="no"?>
<!-- Created with Inkscape (http://www.inkscape.org/) -->

<svg
   xmlns:dc="http://purl.org/dc/elements/1.1/"
   xmlns:cc="http://creativecommons.org/ns#"
   xmlns:rdf="http://www.w3.org/1999/02/22-rdf-syntax-ns#"
   xmlns:svg="http://www.w3.org/2000/svg"
   xmlns="http://www.w3.org/2000/svg"
   xmlns:sodipodi="http://sodipodi.sourceforge.net/DTD/sodipodi-0.dtd"
   xmlns:inkscape="http://www.inkscape.org/namespaces/inkscape"
   version="1.0"
   width="28"
   height="28"
   id="svg2"
   inkscape:version="0.91 r13725"
   sodipodi:docname="GeoGebra_App.svg">
  <metadata
     id="metadata42">
    <rdf:RDF>
      <cc:Work
         rdf:about="">
        <dc:format>image/svg+xml</dc:format>
        <dc:type
           rdf:resource="http://purl.org/dc/dcmitype/StillImage" />
        <dc:title></dc:title>
      </cc:Work>
    </rdf:RDF>
  </metadata>
  <sodipodi:namedview
     pagecolor="#ffffff"
     bordercolor="#666666"
     borderopacity="1"
     objecttolerance="10"
     gridtolerance="10"
     guidetolerance="10"
     inkscape:pageopacity="0"
     inkscape:pageshadow="2"
     inkscape:window-width="1920"
     inkscape:window-height="974"
     id="namedview40"
     showgrid="false"
     inkscape:zoom="16.857143"
     inkscape:cx="3.9745763"
     inkscape:cy="14"
     inkscape:window-x="0"
     inkscape:window-y="1"
     inkscape:window-maximized="1"
     inkscape:current-layer="svg2" />
  <desc
     id="desc6">Creator: FreeHEP Graphics2D Driver Producer: geogebra.d.a Revision: 1.10  Source:  Date: Samstag, 7. August 2010 14:06 Uhr MESZ</desc>
  <defs
     id="defs85" />
  <g
     id="g4172">
    <rect
       y="2.6986833"
       x="2.224107"
       height="22.48399"
       width="23.551786"
       id="rect3370"
       style="opacity:1;fill:#ffffff;fill-opacity:1;fill-rule:nonzero;stroke:#ffffff;stroke-width:4.109231;stroke-linecap:round;stroke-linejoin:round;stroke-miterlimit:4;stroke-dasharray:none;stroke-opacity:1" />
    <g
       id="g2498">
      <g
         style="stroke-width:1;stroke-linecap:square;stroke-linejoin:miter;stroke-miterlimit:10;stroke-dasharray:none;stroke-dashoffset:0"
         id="layer0"
         transform="matrix(1.5088877,0,0,1.5088877,-0.4551044,0.6704056)">
        <g
           id="g18"
           transform="scale(0.5669291,0.5669291)">
          <g
             style="fill:none;stroke:#666666;stroke-width:2.5;stroke-linecap:round;stroke-linejoin:round;stroke-opacity:1"
             id="g20">
            <path
               id="path22"
               d="m 4.653045,21.715398 c 2.5528723,5.337746 9.999931,7.092936 16.633471,3.920328 6.63354,-3.172609 9.941575,-10.071615 7.388703,-15.409361 C 26.122347,4.8886185 18.675288,3.1334281 12.041748,6.3060371 5.4082076,9.4786461 2.1001727,16.377652 4.653045,21.715398 z" />
          </g>
        </g>
        <g
           id="g24"
           transform="scale(0.5669291,0.5669291)">
          <g
             style="fill:#9999ff;fill-opacity:1;fill-rule:nonzero;stroke:none"
             id="g26">
            <path
               id="path28"
               d="m 19,5 c 0,1.6568542 -1.343146,3 -3,3 -1.656854,0 -3,-1.3431458 -3,-3 0,-1.6568542 1.343146,-3 3,-3 1.656854,0 3,1.3431458 3,3 z" />
          </g>
        </g>
        <g
           id="g30"
           transform="scale(0.5669291,0.5669291)">
          <g
             style="fill:none;stroke:#000000;stroke-linecap:round;stroke-linejoin:round;stroke-opacity:1"
             id="g32">
            <path
               id="path34"
               d="m 19,5 c 0,1.6568542 -1.343146,3 -3,3 -1.656854,0 -3,-1.3431458 -3,-3 0,-1.6568542 1.343146,-3 3,-3 1.656854,0 3,1.3431458 3,3 z" />
          </g>
        </g>
        <g
           id="g36"
           transform="scale(0.5669291,0.5669291)">
          <g
             style="fill:#9999ff;fill-opacity:1;fill-rule:nonzero;stroke:none"
             id="g38">
            <path
               id="path40"
               d="m 8,13 c 0,1.656854 -1.3431458,3 -3,3 -1.6568542,0 -3,-1.343146 -3,-3 0,-1.656854 1.3431458,-3 3,-3 1.6568542,0 3,1.343146 3,3 z" />
          </g>
        </g>
        <g
           id="g42"
           transform="scale(0.5669291,0.5669291)">
          <g
             style="fill:none;stroke:#000000;stroke-linecap:round;stroke-linejoin:round;stroke-opacity:1"
             id="g44">
            <path
               id="path46"
               d="m 8,13 c 0,1.656854 -1.3431458,3 -3,3 -1.6568542,0 -3,-1.343146 -3,-3 0,-1.656854 1.3431458,-3 3,-3 1.6568542,0 3,1.343146 3,3 z" />
          </g>
        </g>
        <g
           id="g48"
           transform="scale(0.5669291,0.5669291)">
          <g
             style="fill:#9999ff;fill-opacity:1;fill-rule:nonzero;stroke:none"
             id="g50">
            <path
               id="path52"
               d="m 12,26 c 0,1.656854 -1.343146,3 -3,3 -1.6568542,0 -3,-1.343146 -3,-3 0,-1.656854 1.3431458,-3 3,-3 1.656854,0 3,1.343146 3,3 z" />
          </g>
        </g>
        <g
           id="g54"
           transform="scale(0.5669291,0.5669291)">
          <g
             style="fill:none;stroke:#000000;stroke-linecap:round;stroke-linejoin:round;stroke-opacity:1"
             id="g56">
            <path
               id="path58"
               d="m 12,26 c 0,1.656854 -1.343146,3 -3,3 -1.6568542,0 -3,-1.343146 -3,-3 0,-1.656854 1.3431458,-3 3,-3 1.656854,0 3,1.343146 3,3 z" />
          </g>
        </g>
        <g
           id="g60"
           transform="scale(0.5669291,0.5669291)">
          <g
             style="fill:#9999ff;fill-opacity:1;fill-rule:nonzero;stroke:none"
             id="g62">
            <path
               id="path64"
               d="m 27,24 c 0,1.656854 -1.343146,3 -3,3 -1.656854,0 -3,-1.343146 -3,-3 0,-1.656854 1.343146,-3 3,-3 1.656854,0 3,1.343146 3,3 z" />
          </g>
        </g>
        <g
           id="g66"
           transform="scale(0.5669291,0.5669291)">
          <g
             style="fill:none;stroke:#000000;stroke-linecap:round;stroke-linejoin:round;stroke-opacity:1"
             id="g68">
            <path
               id="path70"
               d="m 27,24 c 0,1.656854 -1.343146,3 -3,3 -1.656854,0 -3,-1.343146 -3,-3 0,-1.656854 1.343146,-3 3,-3 1.656854,0 3,1.343146 3,3 z" />
          </g>
        </g>
        <g
           id="g72"
           transform="scale(0.5669291,0.5669291)">
          <g
             style="fill:#9999ff;fill-opacity:1;fill-rule:nonzero;stroke:none"
             id="g74">
            <path
               id="path76"
               d="m 32,11 c 0,1.656854 -1.343146,3 -3,3 -1.656854,0 -3,-1.343146 -3,-3 0,-1.6568542 1.343146,-3 3,-3 1.656854,0 3,1.3431458 3,3 z" />
          </g>
        </g>
        <g
           id="g78"
           transform="scale(0.5669291,0.5669291)">
          <g
             style="fill:none;stroke:#000000;stroke-linecap:round;stroke-linejoin:round;stroke-opacity:1"
             id="g80">
            <path
               id="path82"
               d="m 32,11 c 0,1.656854 -1.343146,3 -3,3 -1.656854,0 -3,-1.343146 -3,-3 0,-1.6568542 1.343146,-3 3,-3 1.656854,0 3,1.3431458 3,3 z" />
          </g>
        </g>
      </g>
    </g>
  </g>
</svg>
